name Walk7.mot
datacolumns 19
datarows 27
range 1.21100000 1.23700000
endheader

                time	   L_ground_force_vx	   L_ground_force_vy	   L_ground_force_vz	   L_ground_force_px	   L_ground_force_py	   L_ground_force_pz	   R_ground_force_vx	   R_ground_force_vy	   R_ground_force_vz	   R_ground_force_px	   R_ground_force_py	   R_ground_force_pz	   L_ground_torque_x	   L_ground_torque_y	   L_ground_torque_z	   R_ground_torque_x	   R_ground_torque_y	   R_ground_torque_z	
          1.21100000	          0.00000000	          0.00000000	          0.00000000	          0.00000000	          0.00000000	          0.00000000	          0.00000000	          0.00000000	          0.00000000	          0.00000000	          0.00000000	          0.00000000	          0.00000000	          0.00000000	          0.00000000	          0.00000000	          0.00000000	          0.00000000	
          1.21200000	          0.00000000	          0.00000000	          0.00000000	          0.00000000	          0.00000000	          0.00000000	          0.00000000	          0.00000000	          0.00000000	          0.00000000	          0.00000000	          0.00000000	          0.00000000	          0.00000000	          0.00000000	          0.00000000	          0.00000000	          0.00000000	
          1.21300000	          0.00000000	          0.00000000	          0.00000000	          0.00000000	          0.00000000	          0.00000000	          0.00000000	          0.00000000	          0.00000000	          0.00000000	          0.00000000	          0.00000000	          0.00000000	          0.00000000	          0.00000000	          0.00000000	          0.00000000	          0.00000000	
          1.21400000	          0.00000000	          0.00000000	          0.00000000	          0.00000000	          0.00000000	          0.00000000	          0.00000000	          0.00000000	          0.00000000	          0.00000000	          0.00000000	          0.00000000	          0.00000000	          0.00000000	          0.00000000	          0.00000000	          0.00000000	          0.00000000	
          1.21500000	          0.00000000	          0.00000000	          0.00000000	          0.00000000	          0.00000000	          0.00000000	          0.00000000	          0.00000000	          0.00000000	          0.00000000	          0.00000000	          0.00000000	          0.00000000	          0.00000000	          0.00000000	          0.00000000	          0.00000000	          0.00000000	
          1.21600000	          0.00000000	          0.00000000	          0.00000000	          0.00000000	          0.00000000	          0.00000000	          0.00000000	          0.00000000	          0.00000000	          0.00000000	          0.00000000	          0.00000000	          0.00000000	          0.00000000	          0.00000000	          0.00000000	          0.00000000	          0.00000000	
          1.21700000	         -2.12998623	         20.20239891	         -1.33378808	         -0.30479660	          0.00000000	          0.01905851	          0.00000000	          0.00000000	          0.00000000	          0.00000000	          0.00000000	          0.00000000	          0.00000000	         -0.09891731	          0.00000000	          0.00000000	          0.00000000	          0.00000000	
          1.21800000	         -2.79001441	         34.70010420	         -2.23294097	         -0.30920584	          0.00000000	          0.01480505	          0.00000000	          0.00000000	          0.00000000	          0.00000000	          0.00000000	          0.00000000	          0.00000000	         -0.12290949	          0.00000000	          0.00000000	          0.00000000	          0.00000000	
          1.21900000	         -3.66484371	         57.87346202	         -3.70327722	         -0.31282911	          0.00000000	          0.01131525	          0.00000000	          0.00000000	          0.00000000	          0.00000000	          0.00000000	          0.00000000	          0.00000000	         -0.10775493	          0.00000000	          0.00000000	          0.00000000	          0.00000000	
          1.22000000	         -4.87267456	         93.97209293	         -6.03995088	         -0.31556661	          0.00000000	          0.00915351	          0.00000000	          0.00000000	          0.00000000	          0.00000000	          0.00000000	          0.00000000	          0.00000000	         -0.03701221	          0.00000000	          0.00000000	          0.00000000	          0.00000000	
          1.22100000	         -6.36899169	        146.67505559	         -9.54464784	         -0.31739249	          0.00000000	          0.00812734	          0.00000000	          0.00000000	          0.00000000	          0.00000000	          0.00000000	          0.00000000	          0.00000000	          0.09059315	          0.00000000	          0.00000000	          0.00000000	          0.00000000	
          1.22200000	         -7.90566545	        217.24442376	        -14.48157225	         -0.31849366	          0.00000000	          0.00777844	          0.00000000	          0.00000000	          0.00000000	          0.00000000	          0.00000000	          0.00000000	          0.00000000	          0.25537562	          0.00000000	          0.00000000	          0.00000000	          0.00000000	
          1.22300000	         -9.11988346	        302.83944464	        -21.04333782	         -0.31909318	          0.00000000	          0.00778558	          0.00000000	          0.00000000	          0.00000000	          0.00000000	          0.00000000	          0.00000000	          0.00000000	          0.42222917	          0.00000000	          0.00000000	          0.00000000	          0.00000000	
          1.22400000	         -9.74168270	        396.13044305	        -29.32264524	         -0.31933250	          0.00000000	          0.00798321	          0.00000000	          0.00000000	          0.00000000	          0.00000000	          0.00000000	          0.00000000	          0.00000000	          0.56148297	          0.00000000	          0.00000000	          0.00000000	          0.00000000	
          1.22500000	         -9.81706906	        486.98195094	        -39.24302355	         -0.31930262	          0.00000000	          0.00828947	          0.00000000	          0.00000000	          0.00000000	          0.00000000	          0.00000000	          0.00000000	          0.00000000	          0.66439584	          0.00000000	          0.00000000	          0.00000000	          0.00000000	
          1.22600000	         -9.76158456	        565.53928638	        -50.47068710	         -0.31908901	          0.00000000	          0.00866799	          0.00000000	          0.00000000	          0.00000000	          0.00000000	          0.00000000	          0.00000000	          0.00000000	          0.73324448	          0.00000000	          0.00000000	          0.00000000	          0.00000000	
          1.22700000	        -10.17254916	        624.99380416	        -62.43013231	         -0.31876297	          0.00000000	          0.00910548	          0.00000000	          0.00000000	          0.00000000	          0.00000000	          0.00000000	          0.00000000	          0.00000000	          0.76244799	          0.00000000	          0.00000000	          0.00000000	          0.00000000	
          1.22800000	        -11.56357689	        662.79240885	        -74.44239408	         -0.31836631	          0.00000000	          0.00958927	          0.00000000	          0.00000000	          0.00000000	          0.00000000	          0.00000000	          0.00000000	          0.00000000	          0.74528145	          0.00000000	          0.00000000	          0.00000000	          0.00000000	
          1.22900000	        -14.20464307	        680.28306324	        -85.86491359	         -0.31792650	          0.00000000	          0.01009967	          0.00000000	          0.00000000	          0.00000000	          0.00000000	          0.00000000	          0.00000000	          0.00000000	          0.69605585	          0.00000000	          0.00000000	          0.00000000	          0.00000000	
          1.23000000	        -18.09141338	        681.48610580	        -96.17268336	         -0.31747363	          0.00000000	          0.01061812	          0.00000000	          0.00000000	          0.00000000	          0.00000000	          0.00000000	          0.00000000	          0.00000000	          0.64479919	          0.00000000	          0.00000000	          0.00000000	          0.00000000	
          1.23100000	        -23.01796674	        671.69076056	       -105.01283324	         -0.31703354	          0.00000000	          0.01112186	          0.00000000	          0.00000000	          0.00000000	          0.00000000	          0.00000000	          0.00000000	          0.00000000	          0.61018502	          0.00000000	          0.00000000	          0.00000000	          0.00000000	
          1.23200000	        -28.71054160	        656.28852491	       -112.23521784	         -0.31661055	          0.00000000	          0.01157171	          0.00000000	          0.00000000	          0.00000000	          0.00000000	          0.00000000	          0.00000000	          0.00000000	          0.59123447	          0.00000000	          0.00000000	          0.00000000	          0.00000000	
          1.23300000	        -34.92623714	        639.94769875	       -117.86928739	         -0.31617997	          0.00000000	          0.01192364	          0.00000000	          0.00000000	          0.00000000	          0.00000000	          0.00000000	          0.00000000	          0.00000000	          0.57773726	          0.00000000	          0.00000000	          0.00000000	          0.00000000	
          1.23400000	        -41.48643081	        626.08410166	       -122.06320288	         -0.31570403	          0.00000000	          0.01214881	          0.00000000	          0.00000000	          0.00000000	          0.00000000	          0.00000000	          0.00000000	          0.00000000	          0.55945924	          0.00000000	          0.00000000	          0.00000000	          0.00000000	
          1.23500000	        -48.29523150	        616.66179747	       -125.01811226	         -0.31516293	          0.00000000	          0.01224306	          0.00000000	          0.00000000	          0.00000000	          0.00000000	          0.00000000	          0.00000000	          0.00000000	          0.53809547	          0.00000000	          0.00000000	          0.00000000	          0.00000000	
          1.23600000	        -55.33974890	        612.34464782	       -126.91967885	         -0.31457061	          0.00000000	          0.01223592	          0.00000000	          0.00000000	          0.00000000	          0.00000000	          0.00000000	          0.00000000	          0.00000000	          0.53506857	          0.00000000	          0.00000000	          0.00000000	          0.00000000	
          1.23700000	        -62.63285135	        612.81759425	       -127.89304084	         -0.31396676	          0.00000000	          0.01218846	          0.00000000	          0.00000000	          0.00000000	          0.00000000	          0.00000000	          0.00000000	          0.00000000	          0.57158392	          0.00000000	          0.00000000	          0.00000000	          0.00000000	
